<?xml version="1.0" encoding="UTF-8" standalone="no"?>
<!DOCTYPE svg PUBLIC "-//W3C//DTD SVG 1.1//EN" "http://www.w3.org/Graphics/SVG/1.1/DTD/svg11.dtd">
<svg width="100%" height="100%" viewBox="0 0 88 100" version="1.1" xmlns="http://www.w3.org/2000/svg" xmlns:xlink="http://www.w3.org/1999/xlink" xml:space="preserve" xmlns:serif="http://www.serif.com/" style="fill-rule:evenodd;clip-rule:evenodd;stroke-linejoin:round;stroke-miterlimit:2;">
    <g transform="matrix(0.0829835,0,0,0.0829835,40.1195,45.8508)">
        <g transform="matrix(1,0,0,1,-608.037,-447.307)">
            <path d="M348,88L348,90C365.635,90.146 384.571,95.918 401,101.947C464.389,125.208 515.051,183.346 527.54,250C529.593,260.958 532.175,273 532.946,284.015C534.539,306.769 533,330.184 533,353L533,907L712,907C715.023,907 721.878,908.24 723.933,905.397C725.811,902.798 724.005,896.127 724,893L724,276C724,264.524 725.113,252.394 723.714,241C719.578,207.324 705.606,174.903 683.704,149C657.274,117.742 618.068,94.33 577,89.286C566.895,88.045 556.175,89 546,89L489,89C461.226,89 432.714,90.885 405.015,88.946C402.206,88.749 399.694,87.351 396.91,87.218C380.684,86.449 364.294,88 348,88Z" style="fill:rgb(241,183,13);fill-rule:nonzero;"/>
        </g>
        <g transform="matrix(1,0,0,1,-608.037,-447.307)">
            <path d="M508,907C504.65,902.023 497.217,900.432 492,897.742C482.026,892.597 472.335,886.711 463,880.485C436.745,862.974 413.998,840.335 395.286,815C347.106,749.764 332.481,661.566 355.439,584C366.73,545.852 387.069,510.777 413.285,481C429.668,462.392 449.745,445.279 471,432.45C478.858,427.707 486.791,423.351 495,419.247C499.012,417.241 504.319,415.658 507,412L406,412C385.274,412 363.627,410.199 343,412.17C313.636,414.976 284.107,424.783 258,438.258C231.835,451.763 207.907,470.148 188.17,492C110.388,578.116 102.82,712.298 171.735,806C186.895,826.613 205.255,845.234 226,860.255C257.381,882.977 293.806,898.157 332,904.565C354.691,908.371 378.068,907 401,907L508,907Z" style="fill:rgb(232,31,39);fill-rule:nonzero;"/>
        </g>
        <g transform="matrix(1,0,0,1,648.123,-7787.76)">
            <path d="M-512.159,7434.45C-509.477,7438.11 -504.171,7439.69 -500.159,7441.69C-492.361,7445.59 -484.524,7449.45 -477.159,7454.14C-453.459,7469.23 -431.91,7487.23 -413.448,7508.45C-332.294,7601.72 -328.763,7743.08 -402.534,7841.45C-421.818,7867.16 -445.332,7888.79 -472.159,7906.45C-481.073,7912.31 -490.607,7917.46 -500.159,7922.2C-504.851,7924.53 -511.207,7925.94 -514.159,7930.45C-486.813,7930.45 -460.081,7929.47 -433.159,7934.9C-423.068,7936.93 -413.239,7940.91 -404.159,7945.67C-369.617,7963.78 -356.121,7998.82 -350.888,8035.45C-347.143,8061.66 -347.343,8088.07 -346.198,8114.45C-345.761,8124.53 -347.299,8134.32 -345.72,8144.45C-342.015,8168.22 -331.749,8190.35 -315.873,8208.45C-297.006,8229.96 -268.657,8244.52 -240.159,8247.28C-223.129,8248.93 -205.269,8247.45 -188.159,8247.45L-77.159,8247.45C-80.799,8243.2 -86.289,8240.9 -91.159,8238.21C-97.289,8234.83 -103.379,8231.07 -109.159,8227.1C-127.649,8214.41 -140.469,8197.78 -147.489,8176.45C-155.269,8152.82 -156.569,8127.99 -158.249,8103.45C-159.459,8085.73 -160.189,8068.26 -160.159,8050.45C-160.139,8040.43 -158.759,8030.53 -159.199,8020.45C-160.169,7998.22 -163.579,7975.48 -171.019,7954.45C-178.449,7933.44 -189.279,7912.47 -207.159,7898.46C-214.279,7892.88 -222.979,7887.37 -232.159,7886.45C-229.029,7880.65 -222.179,7877.11 -217.159,7872.98C-208.809,7866.11 -200.599,7858.57 -193.449,7850.45C-167.209,7820.65 -147.099,7785.97 -136.889,7747.45C-115.349,7666.09 -135.759,7577.31 -192.329,7514.45C-207.349,7497.76 -225.219,7483.4 -244.159,7471.4C-263.693,7459.03 -284.931,7449.39 -307.159,7443.01C-320.929,7439.05 -335.832,7435.52 -350.159,7434.54C-367.66,7433.34 -385.615,7434.45 -403.159,7434.45L-512.159,7434.45" style="fill:rgb(54,173,69);fill-rule:nonzero;"/>
        </g>
        <g transform="matrix(1,0,0,1,648.123,-7787.76)">
            <path d="M-965.159,7472.87C-981.483,7475.1 -997.328,7480.35 -1011.16,7489.45C-1025.33,7498.78 -1037.06,7510.14 -1046.3,7524.45C-1082.28,7580.16 -1060.34,7657.89 -1001.16,7687.48C-980.129,7697.99 -956.324,7701.28 -933.159,7698.16C-918.001,7696.12 -903.119,7690.57 -890.159,7682.53C-877.294,7674.56 -865.851,7663.76 -857.069,7651.45C-823.294,7604.1 -832.148,7536.47 -876.159,7498.75C-889.611,7487.22 -906.006,7479.19 -923.159,7474.92C-936.21,7471.68 -951.828,7471.06 -965.159,7472.87Z" style="fill:rgb(83,119,197);fill-rule:nonzero;"/>
        </g>
    </g>
</svg>
